{
  "asset": {
    "generator": "Khronos glTF Blender I/O v1.5.17",
    "version": "2.0"
  },
  "scene": 0,
  "scenes": [
    {
      "name": "Scene",
      "nodes": [
        0
      ]
    }
  ],
  "nodes": [
    {
      "mesh": 0,
      "name": "navMesh"
    }
  ],
  "materials": [
    {
      "doubleSided": true,
      "name": "navMesh",
      "pbrMetallicRoughness": {
        "baseColorFactor": [
          0.800000011920929,
          0.800000011920929,
          0.800000011920929,
          1
        ],
        "metallicFactor": 0,
        "roughnessFactor": 0.7728471159934998
      }
    }
  ],
  "meshes": [
    {
      "name": "navMesh",
      "primitives": [
        {
          "attributes": {
            "POSITION": 0,
            "NORMAL": 1
          },
          "indices": 2,
          "material": 0
        }
      ]
    }
  ],
  "accessors": [
    {
      "bufferView": 0,
      "componentType": 5126,
      "count": 2383,
      "max": [
        9.716699600219727,
        1.8831000328063965,
        14.300000190734863
      ],
      "min": [
        -2.2832999229431152,
        -1.72160005569458,
        -3.3499999046325684
      ],
      "type": "VEC3"
    },
    {
      "bufferView": 1,
      "componentType": 5126,
      "count": 2383,
      "type": "VEC3"
    },
    {
      "bufferView": 2,
      "componentType": 5123,
      "count": 3780,
      "type": "SCALAR"
    }
  ],
  "bufferViews": [
    {
      "buffer": 0,
      "byteLength": 28596,
      "byteOffset": 0
    },
    {
      "buffer": 0,
      "byteLength": 28596,
      "byteOffset": 28596
    },
    {
      "buffer": 0,
      "byteLength": 7560,
      "byteOffset": 57192
    }
  ],
  "buffers": [
    {
      "uri": "navMesh_data.bin",
      "byteLength": 64752
    }
  ]
}